<svg width="62" height="25" viewBox="0 0 62 25" fill="none" xmlns="http://www.w3.org/2000/svg">
<path d="M14.65 18.3C15.13 19.26 15.68 20.08 16.3 20.76C16.94 21.42 17.76 21.95 18.76 22.35C17.78 23.95 16.48 24.75 14.86 24.75C13.92 24.75 13.11 24.46 12.43 23.88C11.77 23.28 11.06 22.27 10.3 20.85L8.35 17.28L5.65 18.78C5.61 19.7 5.59 20.38 5.59 20.82C5.59 21.52 5.65 22.07 5.77 22.47C5.91 22.87 6.12 23.22 6.4 23.52C5.96 23.92 5.46 24.22 4.9 24.42C4.34 24.64 3.79 24.75 3.25 24.75C2.29 24.75 1.58 24.46 1.12 23.88C0.68 23.3 0.46 22.4 0.46 21.18C0.46 20.22 0.7 18.24 1.18 15.24C1.68 12.24 2.29 8.71 3.01 4.65L1.45 2.58C2.17 2.04 2.96 1.6 3.82 1.26C4.7 0.919999 5.5 0.749999 6.22 0.749999C7 0.749999 7.56 0.899999 7.9 1.2C8.24 1.5 8.41 2 8.41 2.7C8.41 3.16 8.34 3.76 8.2 4.5C8.06 5.24 7.82 6.36 7.48 7.86C6.72 11.16 6.2 13.86 5.92 15.96L7.66 14.58C9.36 13.18 10.61 12.01 11.41 11.07C12.23 10.11 12.64 9.13 12.64 8.13C12.64 7.73 12.56 7.31 12.4 6.87C13.42 6.29 14.44 6 15.46 6C16.24 6 16.87 6.23 17.35 6.69C17.83 7.15 18.07 7.77 18.07 8.55C18.07 9.59 17.64 10.62 16.78 11.64C15.94 12.64 14.59 13.7 12.73 14.82L14.65 18.3ZM35.748 8.25V24H32.628V21.57C32.148 22.23 31.438 22.85 30.498 23.43C29.558 24.01 28.468 24.3 27.228 24.3C25.908 24.3 24.698 23.95 23.598 23.25C22.518 22.55 21.658 21.58 21.018 20.34C20.378 19.1 20.058 17.68 20.058 16.08C20.058 14.48 20.388 13.07 21.048 11.85C21.708 10.61 22.618 9.65 23.778 8.97C24.938 8.27 26.258 7.92 27.738 7.92C28.838 7.92 29.798 8.16 30.618 8.64C31.458 9.12 32.128 9.68 32.628 10.32V8.25H35.748ZM27.948 21.45C28.908 21.45 29.748 21.22 30.468 20.76C31.188 20.28 31.748 19.64 32.148 18.84C32.548 18.02 32.748 17.1 32.748 16.08C32.748 15.08 32.548 14.18 32.148 13.38C31.748 12.58 31.188 11.95 30.468 11.49C29.748 11.01 28.908 10.77 27.948 10.77C27.028 10.77 26.208 11 25.488 11.46C24.768 11.92 24.208 12.55 23.808 13.35C23.408 14.15 23.208 15.06 23.208 16.08C23.208 17.1 23.408 18.02 23.808 18.84C24.208 19.64 24.768 20.28 25.488 20.76C26.208 21.22 27.028 21.45 27.948 21.45ZM48.8823 11.58C48.6823 11.48 48.4323 11.4 48.1323 11.34C47.8523 11.26 47.5523 11.22 47.2323 11.22C46.5923 11.22 45.9623 11.39 45.3423 11.73C44.7223 12.05 44.2023 12.52 43.7823 13.14C43.3823 13.74 43.1823 14.46 43.1823 15.3V24H40.0623V8.25H43.1823V11.22C43.6223 10.26 44.2823 9.47 45.1623 8.85C46.0623 8.23 47.0023 7.92 47.9823 7.92C48.7223 7.92 49.2923 8.02 49.6923 8.22L48.8823 11.58ZM57.7879 24H54.6979V11.25H51.4279V8.25H54.6979V4.23H57.7879V8.25H61.4479V11.25H57.7879V24Z" fill="#EB5757"/>
</svg>
