<svg width="23" height="29" viewBox="0 0 23 29" fill="none" xmlns="http://www.w3.org/2000/svg">
<path d="M17.98 21.16C18.556 22.312 19.216 23.296 19.96 24.112C20.728 24.904 21.712 25.54 22.912 26.02C21.736 27.94 20.176 28.9 18.232 28.9C17.104 28.9 16.132 28.552 15.316 27.856C14.524 27.136 13.672 25.924 12.76 24.22L10.42 19.936L7.18 21.736C7.132 22.84 7.108 23.656 7.108 24.184C7.108 25.024 7.18 25.684 7.324 26.164C7.492 26.644 7.744 27.064 8.08 27.424C7.552 27.904 6.952 28.264 6.28 28.504C5.608 28.768 4.948 28.9 4.3 28.9C3.148 28.9 2.296 28.552 1.744 27.856C1.216 27.16 0.952 26.08 0.952 24.616C0.952 23.464 1.24 21.088 1.816 17.488C2.416 13.888 3.148 9.652 4.012 4.78L2.14 2.296C3.004 1.648 3.952 1.12 4.984 0.711999C6.04 0.303999 7 0.0999987 7.864 0.0999987C8.8 0.0999987 9.472 0.279999 9.88 0.639998C10.288 0.999998 10.492 1.6 10.492 2.44C10.492 2.992 10.408 3.712 10.24 4.6C10.072 5.488 9.784 6.832 9.376 8.632C8.464 12.592 7.84 15.832 7.504 18.352L9.592 16.696C11.632 15.016 13.132 13.612 14.092 12.484C15.076 11.332 15.568 10.156 15.568 8.956C15.568 8.476 15.472 7.972 15.28 7.444C16.504 6.748 17.728 6.4 18.952 6.4C19.888 6.4 20.644 6.676 21.22 7.228C21.796 7.78 22.084 8.524 22.084 9.46C22.084 10.708 21.568 11.944 20.536 13.168C19.528 14.368 17.908 15.64 15.676 16.984L17.98 21.16Z" fill="#EB5757"/>
</svg>
