<?xml version="1.0" encoding="UTF-8" standalone="no"?>
<svg
   xmlns:dc="http://purl.org/dc/elements/1.1/"
   xmlns:cc="http://creativecommons.org/ns#"
   xmlns:rdf="http://www.w3.org/1999/02/22-rdf-syntax-ns#"
   xmlns:svg="http://www.w3.org/2000/svg"
   xmlns="http://www.w3.org/2000/svg"
   xmlns:sodipodi="http://sodipodi.sourceforge.net/DTD/sodipodi-0.dtd"
   xmlns:inkscape="http://www.inkscape.org/namespaces/inkscape"
   enable-background="new 0 0 38.1 38.1"
   version="1.1"
   viewBox="0 0 18.000001 18.000001"
   id="svg10"
   sodipodi:docname="unfilled-gray-heart.svg"
   inkscape:version="0.92.2 (5c3e80d, 2017-08-06)"
   width="18"
   height="18">
  <metadata
     id="metadata16">
    <rdf:RDF>
      <cc:Work
         rdf:about="">
        <dc:format>image/svg+xml</dc:format>
        <dc:type
           rdf:resource="http://purl.org/dc/dcmitype/StillImage" />
        <dc:title />
      </cc:Work>
    </rdf:RDF>
  </metadata>
  <defs
     id="defs14" />
  <sodipodi:namedview
     pagecolor="#ffffff"
     bordercolor="#666666"
     borderopacity="1"
     objecttolerance="10"
     gridtolerance="10"
     guidetolerance="10"
     inkscape:pageopacity="0"
     inkscape:pageshadow="2"
     inkscape:window-width="3200"
     inkscape:window-height="1659"
     id="namedview12"
     showgrid="false"
     inkscape:zoom="6.194226"
     inkscape:cx="-56.181353"
     inkscape:cy="19.049999"
     inkscape:window-x="-14"
     inkscape:window-y="-14"
     inkscape:window-maximized="1"
     inkscape:current-layer="svg10" />
  <style
     type="text/css"
     id="style2">.st0{fill:#00A5CB;} .st1{fill:#0190B0;} .st2{fill:#FFFFFF;} .st3{fill:#F2F2F2;}</style>
  <path
     class="st2"
     d="m 17.490678,6.0322044 c -0.1,-0.9 -0.4,-1.8 -1,-2.7 -0.9,-1.2 -2.3,-1.9 -3.8,-1.9 -1.7,0 -2.5,1 -3.6999996,2 -1.1,-1.5 -2.7,-2.4 -4.6,-2.1 -2.3,0.4 -3.70000001,2.7 -3.80000001,4.9 -0.1,2 0.80000001,4.0000006 2.00000001,5.6000006 0.9,1.2 2,2.2 3.1,3.1 0.6,0.5 2.4,2 2.8,2.2 0.5,0.3 1,-0.1 1.4999996,-0.4 0.4,-0.3 0.8,-0.6 1.2,-0.8 1.1,-0.8 2.2,-1.7 3.1,-2.7 1.8,-1.7 3.4,-4.5000004 3.2,-7.2000006 z"
     id="path8"
     style="fill:none;fill-opacity:1;stroke:#ffffff;stroke-opacity:0.94117647"
     inkscape:connector-curvature="0" />
</svg>
