<svg width="27" height="27" viewBox="0 0 27 27" fill="none" xmlns="http://www.w3.org/2000/svg">
<g id="24 / basic / user">
<path id="icon" fill-rule="evenodd" clip-rule="evenodd" d="M13.5 25.875C6.66548 25.875 1.125 20.3345 1.125 13.5C1.125 6.66548 6.66548 1.125 13.5 1.125C20.3345 1.125 25.875 6.66548 25.875 13.5C25.875 20.3345 20.3345 25.875 13.5 25.875ZM21.8244 19.2652C22.9597 17.6291 23.625 15.6422 23.625 13.5C23.625 7.90812 19.0919 3.375 13.5 3.375C7.90812 3.375 3.375 7.90812 3.375 13.5C3.375 15.6423 4.04031 17.6291 5.17558 19.2652C6.4417 17.5928 9.41694 16.875 13.5 16.875C17.5831 16.875 20.5583 17.5928 21.8244 19.2652ZM20.2103 21.0822C19.881 19.8983 17.5156 19.125 13.5 19.125C9.48445 19.125 7.11901 19.8983 6.78975 21.0823C8.57623 22.6645 10.9259 23.625 13.5 23.625C16.0741 23.625 18.4238 22.6644 20.2103 21.0822ZM13.5 6.75C10.7765 6.75 9 8.72523 9 11.25C9 15.1058 10.981 16.875 13.5 16.875C15.9953 16.875 18 15.1646 18 11.475C18 8.91178 16.216 6.75 13.5 6.75ZM11.25 11.25C11.25 13.8029 12.1705 14.625 13.5 14.625C14.8249 14.625 15.75 13.8357 15.75 11.475C15.75 10.0692 14.8676 9 13.5 9C12.0755 9 11.25 9.9178 11.25 11.25Z" fill="#262626"/>
</g>
</svg>
